<svg width="235" height="248" viewBox="0 0 235 248" fill="none" xmlns="http://www.w3.org/2000/svg">
<rect y="13" width="235" height="235" fill="black"/>
<path d="M31.68 183V66.2H46.4V183H31.68ZM97.165 184.92C92.045 184.92 87.405 183.96 83.245 182.04C79.1917 180.013 75.9383 176.92 73.485 172.76C71.0317 168.493 69.805 163.053 69.805 156.44V101.4H84.525V159C84.525 161.88 85.1117 164.333 86.285 166.36C87.4583 168.387 89.005 169.88 90.925 170.84C92.845 171.8 94.8717 172.28 97.005 172.28C99.1383 172.28 101.165 171.8 103.085 170.84C105.005 169.773 106.552 168.28 107.725 166.36C109.005 164.333 109.645 161.88 109.645 159V127.32C109.645 121.027 110.818 115.853 113.165 111.8C115.512 107.64 118.712 104.547 122.765 102.52C126.818 100.493 131.405 99.48 136.525 99.48C141.645 99.48 146.232 100.493 150.285 102.52C154.338 104.547 157.538 107.64 159.885 111.8C162.232 115.853 163.405 121.027 163.405 127.32V159C163.405 161.88 163.992 164.333 165.165 166.36C166.338 168.28 167.885 169.773 169.805 170.84C171.725 171.8 173.805 172.28 176.045 172.28C178.285 172.28 180.312 171.8 182.125 170.84C183.938 169.773 185.432 168.28 186.605 166.36C187.778 164.333 188.365 161.88 188.365 159V101.4H203.245V156.44C203.245 163.053 202.018 168.493 199.565 172.76C197.112 176.92 193.805 180.013 189.645 182.04C185.592 183.96 181.058 184.92 176.045 184.92C171.138 184.92 166.605 183.96 162.445 182.04C158.285 180.013 154.925 176.92 152.365 172.76C149.912 168.493 148.685 163.053 148.685 156.44V125.08C148.685 122.093 148.098 119.64 146.925 117.72C145.752 115.8 144.258 114.413 142.445 113.56C140.632 112.6 138.658 112.12 136.525 112.12C134.392 112.12 132.365 112.6 130.445 113.56C128.632 114.413 127.138 115.8 125.965 117.72C124.898 119.64 124.365 122.093 124.365 125.08V156.44C124.365 163.053 123.085 168.493 120.525 172.76C118.072 176.92 114.765 180.013 110.605 182.04C106.552 183.96 102.072 184.92 97.165 184.92Z" fill="#E1CCBE"/>
</svg>
